<svg xmlns="http://www.w3.org/2000/svg" width="16" height="14.511" viewBox="0 0 16 14.511"><path d="M16.256,5.061a3.752,3.752,0,0,1-.763-.472,2.741,2.741,0,0,0-1.645-.73,1.24,1.24,0,0,0-.773.467,1.282,1.282,0,0,1-.809.475,2.229,2.229,0,0,1-1.149-.37,3.807,3.807,0,0,0-.742-.33,1.719,1.719,0,0,0-1.756.77c-.473.529-1.151-.006-1.593-.319A2.641,2.641,0,0,0,5.384,3.86a1.24,1.24,0,0,0-.773.467A1.282,1.282,0,0,1,3.8,4.8a2.459,2.459,0,0,1-1.229-.428C2.083,4.1,1.5,3.756.967,3.992V9.731H16.256V5.061Z" transform="translate(-0.611 4.78)" fill="#141414" fill-rule="evenodd"/><rect width="14.924" height="5.75" transform="translate(0.538 7.791)" fill="#777"/><path d="M1.823,12.536H15.884V2.078h.97V13.506h-16V2.078h.97Z" transform="translate(-0.853 1.005)" fill="#333" fill-rule="evenodd"/><path d="M5.291,7.4a.844.844,0,0,1-.084,0,.485.485,0,0,1-.357-.137L2.7,5.158a.484.484,0,1,1,.676-.693L4.764,5.826V1.576a.485.485,0,0,1,.97,0v4.25L7.125,4.465a.484.484,0,1,1,.676.693L5.648,7.265a.484.484,0,0,1-.357.137Z" transform="translate(2.751 -1.092)" fill="#333" fill-rule="evenodd"/></svg>