<svg xmlns="http://www.w3.org/2000/svg" width="20" height="20" viewBox="0 0 20 20"><path d="M13,8.424A4.557,4.557,0,1,0,16.236,9.76,4.559,4.559,0,0,0,13,8.424Zm0,7.5A2.929,2.929,0,1,1,15.929,13,2.929,2.929,0,0,1,13,15.924ZM20.143,5.857a1.312,1.312,0,0,0-1.819.2,1.31,1.31,0,0,0-.2,1.817,1.309,1.309,0,0,0,1.819-.2A1.311,1.311,0,0,0,20.143,5.857ZM6.06,18.327a1.307,1.307,0,0,0-.2,1.816,1.31,1.31,0,0,0,1.819-.2,1.31,1.31,0,0,0,.2-1.819A1.311,1.311,0,0,0,6.06,18.327Zm-.2-12.47a1.311,1.311,0,0,0,.2,1.819,1.31,1.31,0,0,0,1.819.2,1.31,1.31,0,0,0-.2-1.819A1.311,1.311,0,0,0,5.857,5.857ZM18.324,19.939a1.311,1.311,0,0,0,1.819.2,1.465,1.465,0,0,0-2.021-2.021A1.309,1.309,0,0,0,18.324,19.939ZM13,5.854a1.31,1.31,0,0,0,1.143-1.429A1.308,1.308,0,0,0,13,3a1.307,1.307,0,0,0-1.144,1.426A1.309,1.309,0,0,0,13,5.854ZM13,23a1.31,1.31,0,0,0,1.143-1.429A1.306,1.306,0,0,0,13,20.146a1.307,1.307,0,0,0-1.144,1.426A1.307,1.307,0,0,0,13,23ZM5.857,13a1.314,1.314,0,0,0-1.433-1.143A1.306,1.306,0,0,0,3,13a1.3,1.3,0,0,0,1.424,1.143A1.313,1.313,0,0,0,5.857,13ZM23,13a1.312,1.312,0,0,0-1.43-1.143A1.309,1.309,0,0,0,20.143,13a1.308,1.308,0,0,0,1.427,1.143A1.311,1.311,0,0,0,23,13Z" transform="translate(-3 -3)" fill="#333"/></svg>